# xmcd
#
# Track frame offsets:
#	150
#	17435
#	34357
#	54592
#	68905
#	81373
#	100922
#	119642
#	133966
#	151666
#	168321
#	186338
#
# Disc length: 2682 seconds
#
# Revision: 0
# Processed by: cddbd v1.5.2PL0 Copyright (c) Steve Scherf et al.
# Submitted via: audiograbber 1.83.01
#
DISCID=a40a780c
DTITLE=Julio Iglesias - Ich schick dir eine weiﬂe Wolke
DYEAR=1974
DGENRE=Pop
TTITLE0=Ich schick dir eine weiﬂe Wolke
TTITLE1=Heut ist mir klar
TTITLE2=Chiquilla
TTITLE3=Sag jetzt kein Wort
TTITLE4=Meine Liebe, die findet zu dir
TTITLE5=Alle Liebe dieser Erde
TTITLE6=Das Lied unserer Liebe
TTITLE7=Komm wieder Madonna
TTITLE8=Land der Indios
TTITLE9=Was man aus Liebe manchmal tut
TTITLE10=Nina
TTITLE11=Con amor o sin amor
EXTD=
EXTT0=
EXTT1=
EXTT2=
EXTT3=
EXTT4=
EXTT5=
EXTT6=
EXTT7=
EXTT8=
EXTT9=
EXTT10=
EXTT11=
PLAYORDER=
